0
SECTION
2
HEADER
9
$INSUNITS
70
4
9
$ACADVER
1
AC1014
9
$HANDSEED
5
FFFF
0
ENDSEC
0
SECTION
2
TABLES
0
TABLE
2
VPORT
5
8
100
AcDbSymbolTable
0
ENDTAB
0
TABLE
2
LTYPE
5
5
100
AcDbSymbolTable
0
LTYPE
5
14
100
AcDbSymbolTableRecord
100
AcDbLinetypeTableRecord
2
BYBLOCK
70
0
0
LTYPE
5
15
100
AcDbSymbolTableRecord
100
AcDbLinetypeTableRecord
2
BYLAYER
70
0
0
ENDTAB
0
TABLE
2
LAYER
5
2
100
AcDbSymbolTable
70
2
0
LAYER
5
50
100
AcDbSymbolTableRecord
100
AcDbLayerTableRecord
2
0
70
0
6
CONTINUOUS
0
ENDTAB
0
TABLE
2
STYLE
5
3
100
AcDbSymbolTable
70
1
0
STYLE
5
11
100
AcDbSymbolTableRecord
100
AcDbTextStyleTableRecord
2
STANDARD
70
0
0
ENDTAB
0
TABLE
2
VIEW
5
6
100
AcDbSymbolTable
70
0
0
ENDTAB
0
TABLE
2
UCS
5
7
100
AcDbSymbolTable
70
0
0
ENDTAB
0
TABLE
2
APPID
5
9
100
AcDbSymbolTable
70
2
0
APPID
5
12
100
AcDbSymbolTableRecord
100
AcDbRegAppTableRecord
2
ACAD
70
0
0
ENDTAB
0
TABLE
2
DIMSTYLE
5
A
100
AcDbSymbolTable
70
1
0
ENDTAB
0
TABLE
2
BLOCK_RECORD
5
1
100
AcDbSymbolTable
70
1
0
BLOCK_RECORD
5
1F
100
AcDbSymbolTableRecord
100
AcDbBlockTableRecord
2
*MODEL_SPACE
0
BLOCK_RECORD
5
1B
100
AcDbSymbolTableRecord
100
AcDbBlockTableRecord
2
*PAPER_SPACE
0
ENDTAB
0
ENDSEC
0
SECTION
2
BLOCKS
0
BLOCK
5
20
100
AcDbEntity
100
AcDbBlockBegin
2
*MODEL_SPACE
0
ENDBLK
5
21
100
AcDbEntity
100
AcDbBlockEnd
0
BLOCK
5
1C
100
AcDbEntity
100
AcDbBlockBegin
2
*PAPER_SPACE
0
ENDBLK
5
1D
100
AcDbEntity
100
AcDbBlockEnd
0
ENDSEC
0
SECTION
2
ENTITIES
0
CIRCLE
5
100
100
AcDbEntity
8
0
100
AcDbCircle
10
169.76731240711024
20
108.5309952993763
30
0
40
1.7500000000000058
210
0
220
0
230
1
0
LWPOLYLINE
5
101
100
AcDbEntity
8
0
100
AcDbPolyline
90
17
70
1
43
0.0
10
14.274833453290192
20
115.03099529937631
10
98.222694141353202
20
115.0309952993763
10
130.56236801888321
20
115.0309952993763
10
132.57992174361425
20
115.0309952993763
10
151.57992174361422
20
115.0309952993763
10
153.59747546834527
20
115.0309952993763
10
269.8887445899731
20
115.03099529937629
42
-0.36396641985299188
10
272.84316083012732
20
112.55197963686956
10
283.64136730239829
20
51.317131925872928
10
289.58768440745189
20
17.596548484141987
42
-0.41422101282773172
10
287.15417735202487
20
14.121134654975766
10
168.73191439605137
20
-6.7584445070267272
10
115.42784823772236
20
-6.7915011840741109
10
-2.9939996005083098
20
14.088348361981989
42
-0.414213041860441
10
-5.4275110542417027
20
17.56368863539381
10
-0.80585117048357802
20
43.776099326639908
10
11.320404501628815
20
112.55190754686626
42
-0.36397332814529609
0
CIRCLE
5
102
100
AcDbEntity
8
0
100
AcDbCircle
10
0.24186614769401926
20
19.258570591677383
30
0
40
1.7500000000000002
210
0
220
0
230
1
0
LINE
5
103
100
AcDbEntity
8
0
100
AcDbLine
10
-1.1506996121909119
20
18.198730696034602
30
0
11
0.24186614769401926
21
19.258570591677383
31
0
0
LINE
5
104
100
AcDbEntity
8
0
100
AcDbLine
10
15.160226390583091
20
110.5022123155844
30
0
11
16.196877878058022
21
109.09229966101462
31
0
0
CIRCLE
5
105
100
AcDbEntity
8
0
100
AcDbCircle
10
16.196877878058022
20
109.09229966101462
30
0
40
1.7499999999999969
210
0
220
0
230
1
0
CIRCLE
5
106
100
AcDbEntity
8
0
100
AcDbCircle
10
283.90254641564655
20
19.342063650179099
30
0
40
1.7500000000000002
210
0
220
0
230
1
0
LINE
5
107
100
AcDbEntity
8
0
100
AcDbLine
10
144.82992174361425
20
42.280995299376301
30
0
11
139.32992174361425
21
42.280995299376301
31
0
0
LINE
5
108
100
AcDbEntity
8
0
100
AcDbLine
10
139.32992174361425
20
42.280995299376301
30
0
11
144.82992174361425
21
47.780995299376308
31
0
0
CIRCLE
5
109
100
AcDbEntity
8
0
100
AcDbCircle
10
120.93393459744659
20
-1.7880856065731932
30
0
40
1.7500000000000051
210
0
220
0
230
1
0
LINE
5
110
100
AcDbEntity
8
0
100
AcDbLine
10
139.32992174361425
20
42.280995299376301
30
0
11
139.32992174361425
21
47.780995299376308
31
0
0
CIRCLE
5
111
100
AcDbEntity
8
0
100
AcDbCircle
10
266.7190776625369
20
108.85851932928344
30
0
40
1.7499999999999969
210
0
220
0
230
1
0
CIRCLE
5
112
100
AcDbEntity
8
0
100
AcDbCircle
10
114.3925310801182
20
108.5309952993763
30
0
40
1.7500000000000058
210
0
220
0
230
1
0
LINE
5
113
100
AcDbEntity
8
0
100
AcDbLine
10
114.3925310801182
20
110.28099529937631
30
0
11
114.3925310801182
21
108.5309952993763
31
0
0
LINE
5
114
100
AcDbEntity
8
0
100
AcDbLine
10
142.07992174361425
20
47.780995299376308
30
0
11
142.07992174361425
21
45.030995299376301
31
0
0
LINE
5
115
100
AcDbEntity
8
0
100
AcDbLine
10
139.32992174361425
20
47.780995299376308
30
0
11
144.82992174361425
21
47.780995299376308
31
0
0
LINE
5
116
100
AcDbEntity
8
0
100
AcDbLine
10
144.82992174361425
20
42.280995299376301
30
0
11
139.32992174361425
21
47.780995299376308
31
0
0
CIRCLE
5
117
100
AcDbEntity
8
0
100
AcDbCircle
10
163.20774098577775
20
-1.7892774251914378
30
0
40
1.7500000000000051
210
0
220
0
230
1
0
LINE
5
118
100
AcDbEntity
8
0
100
AcDbLine
10
185.94424281415303
20
115.0309952993763
30
0
11
185.93839021012857
21
115.06418629821678
31
0
0
LINE
5
119
100
AcDbEntity
8
0
100
AcDbLine
10
144.82992174361425
20
47.780995299376308
30
0
11
144.82992174361425
21
42.280995299376301
31
0
0
ENDSEC
0
SECTION
2
OBJECTS
0
DICTIONARY
5
C
100
AcDbDictionary
3
ACAD_GROUP
350
D
3
ACAD_MLINESTYLE
350
17
0
DICTIONARY
5
D
100
AcDbDictionary
0
DICTIONARY
5
1A
330
C
100
AcDbDictionary
0
DICTIONARY
5
17
100
AcDbDictionary
0
ENDSEC
0
EOF
