  0
SECTION
  2
HEADER
  9
$ACADVER
  1
AC1009
  9
$EXTMIN
 10
0.0
 20
0.0
 30
0.0
  9
$EXTMAX
 10
1000.0
 20
1000.0
 30
0.0
  9
$FILLMODE
 70
 0
  9
$SPLFRAME
 70
 1
  0
ENDSEC
  0
SECTION
  2
TABLES
  0
TABLE
  2
LAYER
 70
1
  0
LAYER
  2
0
 70
     0
 62
     7
  6
CONTINUOUS
  0
ENDTAB
  0
ENDSEC
  0
SECTION
  2
ENTITIES
  0
LINE
  8
0
 62
     0
 10
0.0950846
 20
106.444
 30
0.0
 11
276.95
 21
106.444
 31
0.0
  0
LINE
  8
0
 62
     0
 10
276.95
 20
106.444
 30
0.0
 11
276.95
 21
0.297656
 31
0.0
  0
LINE
  8
0
 62
     0
 10
276.95
 20
0.297656
 30
0.0
 11
0.0950846
 21
0.297656
 31
0.0
  0
LINE
  8
0
 62
     0
 10
0.0950846
 20
0.297656
 30
0.0
 11
0.0950846
 21
106.444
 31
0.0
  0
LINE
  8
0
 62
     0
 10
100.944
 20
8.96278
 30
0.0
 11
114.731
 21
6.53189
 31
0.0
  0
LINE
  8
0
 62
     0
 10
114.731
 20
6.53189
 30
0.0
 11
117.163
 21
20.3178
 31
0.0
  0
LINE
  8
0
 62
     0
 10
117.163
 20
20.3178
 30
0.0
 11
103.375
 21
22.75
 31
0.0
  0
LINE
  8
0
 62
     0
 10
103.375
 20
22.75
 30
0.0
 11
100.944
 21
8.96278
 31
0.0
  0
LINE
  8
0
 62
     0
 10
166.998
 20
20.3509
 30
0.0
 11
169.429
 21
6.56498
 31
0.0
  0
LINE
  8
0
 62
     0
 10
169.429
 20
6.56498
 30
0.0
 11
183.216
 21
8.99583
 31
0.0
  0
LINE
  8
0
 62
     0
 10
183.216
 20
8.99583
 30
0.0
 11
180.785
 21
22.7817
 31
0.0
  0
LINE
  8
0
 62
     0
 10
180.785
 20
22.7817
 30
0.0
 11
166.998
 21
20.3509
 31
0.0
  0
LINE
  8
0
 62
     0
 10
120.533
 20
10.3449
 30
0.0
 11
134.32
 21
7.91408
 31
0.0
  0
LINE
  8
0
 62
     0
 10
134.32
 20
7.91408
 30
0.0
 11
136.751
 21
21.7
 31
0.0
  0
LINE
  8
0
 62
     0
 10
136.751
 20
21.7
 30
0.0
 11
122.964
 21
24.1308
 31
0.0
  0
LINE
  8
0
 62
     0
 10
122.964
 20
24.1308
 30
0.0
 11
120.533
 21
10.3449
 31
0.0
  0
LINE
  8
0
 62
     0
 10
147.392
 20
21.8267
 30
0.0
 11
149.824
 21
8.04086
 31
0.0
  0
LINE
  8
0
 62
     0
 10
149.824
 20
8.04086
 30
0.0
 11
163.612
 21
10.4717
 31
0.0
  0
LINE
  8
0
 62
     0
 10
163.612
 20
10.4717
 30
0.0
 11
161.181
 21
24.259
 31
0.0
  0
LINE
  8
0
 62
     0
 10
161.181
 20
24.259
 30
0.0
 11
147.392
 21
21.8267
 31
0.0
  0
LINE
  8
0
 62
     0
 10
83.3409
 20
18.8364
 30
0.0
 11
97.1296
 21
16.4055
 31
0.0
  0
LINE
  8
0
 62
     0
 10
97.1296
 20
16.4055
 30
0.0
 11
99.5606
 21
30.1928
 31
0.0
  0
LINE
  8
0
 62
     0
 10
99.5606
 20
30.1928
 30
0.0
 11
85.7719
 21
32.6237
 31
0.0
  0
LINE
  8
0
 62
     0
 10
85.7719
 20
32.6237
 30
0.0
 11
83.3409
 21
18.8364
 31
0.0
  0
LINE
  8
0
 62
     0
 10
184.599
 20
30.2259
 30
0.0
 11
187.03
 21
16.4386
 31
0.0
  0
LINE
  8
0
 62
     0
 10
187.03
 20
16.4386
 30
0.0
 11
200.819
 21
18.8695
 31
0.0
  0
LINE
  8
0
 62
     0
 10
200.819
 20
18.8695
 30
0.0
 11
198.388
 21
32.6567
 31
0.0
  0
LINE
  8
0
 62
     0
 10
198.388
 20
32.6567
 30
0.0
 11
184.599
 21
30.2259
 31
0.0
  0
LINE
  8
0
 62
     0
 10
26.2337
 20
24.0702
 30
0.0
 11
40.0209
 21
21.6393
 31
0.0
  0
LINE
  8
0
 62
     0
 10
40.0209
 20
21.6393
 30
0.0
 11
42.4519
 21
35.4266
 31
0.0
  0
LINE
  8
0
 62
     0
 10
42.4519
 20
35.4266
 30
0.0
 11
28.6646
 21
37.8576
 31
0.0
  0
LINE
  8
0
 62
     0
 10
28.6646
 20
37.8576
 30
0.0
 11
26.2337
 21
24.0702
 31
0.0
  0
LINE
  8
0
 62
     0
 10
241.708
 20
35.4598
 30
0.0
 11
244.14
 21
21.6724
 31
0.0
  0
LINE
  8
0
 62
     0
 10
244.14
 20
21.6724
 30
0.0
 11
257.927
 21
24.1033
 31
0.0
  0
LINE
  8
0
 62
     0
 10
257.927
 20
24.1033
 30
0.0
 11
255.495
 21
37.8904
 31
0.0
  0
LINE
  8
0
 62
     0
 10
255.495
 20
37.8904
 30
0.0
 11
241.708
 21
35.4598
 31
0.0
  0
LINE
  8
0
 62
     0
 10
45.8212
 20
25.4524
 30
0.0
 11
59.6071
 21
23.0215
 31
0.0
  0
LINE
  8
0
 62
     0
 10
59.6071
 20
23.0215
 30
0.0
 11
62.0391
 21
36.8088
 31
0.0
  0
LINE
  8
0
 62
     0
 10
62.0391
 20
36.8088
 30
0.0
 11
48.2519
 21
39.2395
 31
0.0
  0
LINE
  8
0
 62
     0
 10
48.2519
 20
39.2395
 30
0.0
 11
45.8212
 21
25.4524
 31
0.0
  0
LINE
  8
0
 62
     0
 10
222.122
 20
36.842
 30
0.0
 11
224.553
 21
23.0546
 31
0.0
  0
LINE
  8
0
 62
     0
 10
224.553
 20
23.0546
 30
0.0
 11
238.34
 21
25.4854
 31
0.0
  0
LINE
  8
0
 62
     0
 10
238.34
 20
25.4854
 30
0.0
 11
235.909
 21
39.2726
 31
0.0
  0
LINE
  8
0
 62
     0
 10
235.909
 20
39.2726
 30
0.0
 11
222.122
 21
36.842
 31
0.0
  0
LINE
  8
0
 62
     0
 10
104.253
 20
27.7234
 30
0.0
 11
118.04
 21
25.2911
 31
0.0
  0
LINE
  8
0
 62
     0
 10
118.04
 20
25.2911
 30
0.0
 11
120.471
 21
39.0797
 31
0.0
  0
LINE
  8
0
 62
     0
 10
120.471
 20
39.0797
 30
0.0
 11
106.684
 21
41.5107
 31
0.0
  0
LINE
  8
0
 62
     0
 10
106.684
 20
41.5107
 30
0.0
 11
104.253
 21
27.7234
 31
0.0
  0
LINE
  8
0
 62
     0
 10
163.689
 20
39.1128
 30
0.0
 11
166.121
 21
25.3242
 31
0.0
  0
LINE
  8
0
 62
     0
 10
166.121
 20
25.3242
 30
0.0
 11
179.907
 21
27.7551
 31
0.0
  0
LINE
  8
0
 62
     0
 10
179.907
 20
27.7551
 30
0.0
 11
177.476
 21
41.5438
 31
0.0
  0
LINE
  8
0
 62
     0
 10
177.476
 20
41.5438
 30
0.0
 11
163.689
 21
39.1128
 31
0.0
  0
LINE
  8
0
 62
     0
 10
65.7394
 20
28.71
 30
0.0
 11
79.5267
 21
26.2792
 31
0.0
  0
LINE
  8
0
 62
     0
 10
79.5267
 20
26.2792
 30
0.0
 11
81.9573
 21
40.0678
 31
0.0
  0
LINE
  8
0
 62
     0
 10
81.9573
 20
40.0678
 30
0.0
 11
68.1701
 21
42.4988
 31
0.0
  0
LINE
  8
0
 62
     0
 10
68.1701
 20
42.4988
 30
0.0
 11
65.7394
 21
28.71
 31
0.0
  0
LINE
  8
0
 62
     0
 10
202.202
 20
40.0995
 30
0.0
 11
204.633
 21
26.3122
 31
0.0
  0
LINE
  8
0
 62
     0
 10
204.633
 20
26.3122
 30
0.0
 11
218.422
 21
28.7431
 31
0.0
  0
LINE
  8
0
 62
     0
 10
218.422
 20
28.7431
 30
0.0
 11
215.99
 21
42.5305
 31
0.0
  0
LINE
  8
0
 62
     0
 10
215.99
 20
42.5305
 30
0.0
 11
202.202
 21
40.0995
 31
0.0
  0
LINE
  8
0
 62
     0
 10
86.6496
 20
37.5969
 30
0.0
 11
100.437
 21
35.1662
 31
0.0
  0
LINE
  8
0
 62
     0
 10
100.437
 20
35.1662
 30
0.0
 11
102.869
 21
48.9536
 31
0.0
  0
LINE
  8
0
 62
     0
 10
102.869
 20
48.9536
 30
0.0
 11
89.0806
 21
51.3842
 31
0.0
  0
LINE
  8
0
 62
     0
 10
89.0806
 20
51.3842
 30
0.0
 11
86.6496
 21
37.5969
 31
0.0
  0
LINE
  8
0
 62
     0
 10
181.292
 20
48.9864
 30
0.0
 11
183.723
 21
35.1978
 31
0.0
  0
LINE
  8
0
 62
     0
 10
183.723
 20
35.1978
 30
0.0
 11
197.51
 21
37.6301
 31
0.0
  0
LINE
  8
0
 62
     0
 10
197.51
 20
37.6301
 30
0.0
 11
195.079
 21
51.4174
 31
0.0
  0
LINE
  8
0
 62
     0
 10
195.079
 20
51.4174
 30
0.0
 11
181.292
 21
48.9864
 31
0.0
  0
LINE
  8
0
 62
     0
 10
10.1189
 20
42.387
 30
0.0
 11
23.9062
 21
39.9549
 31
0.0
  0
LINE
  8
0
 62
     0
 10
23.9062
 20
39.9549
 30
0.0
 11
26.3371
 21
53.7436
 31
0.0
  0
LINE
  8
0
 62
     0
 10
26.3371
 20
53.7436
 30
0.0
 11
12.5498
 21
56.1742
 31
0.0
  0
LINE
  8
0
 62
     0
 10
12.5498
 20
56.1742
 30
0.0
 11
10.1189
 21
42.387
 31
0.0
  0
LINE
  8
0
 62
     0
 10
257.806
 20
53.8688
 30
0.0
 11
260.237
 21
40.083
 31
0.0
  0
LINE
  8
0
 62
     0
 10
260.237
 20
40.083
 30
0.0
 11
274.024
 21
42.514
 31
0.0
  0
LINE
  8
0
 62
     0
 10
274.024
 20
42.514
 30
0.0
 11
271.593
 21
56.2998
 31
0.0
  0
LINE
  8
0
 62
     0
 10
271.593
 20
56.2998
 30
0.0
 11
257.806
 21
53.8688
 31
0.0
  0
LINE
  8
0
 62
     0
 10
29.541
 20
42.8308
 30
0.0
 11
43.3282
 21
40.4001
 31
0.0
  0
LINE
  8
0
 62
     0
 10
43.3282
 20
40.4001
 30
0.0
 11
45.7592
 21
54.1874
 31
0.0
  0
LINE
  8
0
 62
     0
 10
45.7592
 20
54.1874
 30
0.0
 11
31.9719
 21
56.618
 31
0.0
  0
LINE
  8
0
 62
     0
 10
31.9719
 20
56.618
 30
0.0
 11
29.541
 21
42.8308
 31
0.0
  0
LINE
  8
0
 62
     0
 10
238.401
 20
54.2202
 30
0.0
 11
240.832
 21
40.4329
 31
0.0
  0
LINE
  8
0
 62
     0
 10
240.832
 20
40.4329
 30
0.0
 11
254.619
 21
42.8639
 31
0.0
  0
LINE
  8
0
 62
     0
 10
254.619
 20
42.8639
 30
0.0
 11
252.188
 21
56.6512
 31
0.0
  0
LINE
  8
0
 62
     0
 10
252.188
 20
56.6512
 30
0.0
 11
238.401
 21
54.2202
 31
0.0
  0
LINE
  8
0
 62
     0
 10
49.1285
 20
44.2129
 30
0.0
 11
62.9172
 21
41.7823
 31
0.0
  0
LINE
  8
0
 62
     0
 10
62.9172
 20
41.7823
 30
0.0
 11
65.3479
 21
55.5696
 31
0.0
  0
LINE
  8
0
 62
     0
 10
65.3479
 20
55.5696
 30
0.0
 11
51.5592
 21
58.0002
 31
0.0
  0
LINE
  8
0
 62
     0
 10
51.5592
 20
58.0002
 30
0.0
 11
49.1285
 21
44.2129
 31
0.0
  0
LINE
  8
0
 62
     0
 10
218.813
 20
55.6024
 30
0.0
 11
221.244
 21
41.8137
 31
0.0
  0
LINE
  8
0
 62
     0
 10
221.244
 20
41.8137
 30
0.0
 11
235.031
 21
44.2461
 31
0.0
  0
LINE
  8
0
 62
     0
 10
235.031
 20
44.2461
 30
0.0
 11
232.601
 21
58.0334
 31
0.0
  0
LINE
  8
0
 62
     0
 10
232.601
 20
58.0334
 30
0.0
 11
218.813
 21
55.6024
 31
0.0
  0
LINE
  8
0
 62
     0
 10
107.56
 20
46.4841
 30
0.0
 11
121.347
 21
44.0517
 31
0.0
  0
LINE
  8
0
 62
     0
 10
121.347
 20
44.0517
 30
0.0
 11
123.779
 21
57.839
 31
0.0
  0
LINE
  8
0
 62
     0
 10
123.779
 20
57.839
 30
0.0
 11
109.991
 21
60.27
 31
0.0
  0
LINE
  8
0
 62
     0
 10
109.991
 20
60.27
 30
0.0
 11
107.56
 21
46.4841
 31
0.0
  0
LINE
  8
0
 62
     0
 10
160.382
 20
57.8721
 30
0.0
 11
162.813
 21
44.0849
 31
0.0
  0
LINE
  8
0
 62
     0
 10
162.813
 20
44.0849
 30
0.0
 11
176.6
 21
46.5169
 31
0.0
  0
LINE
  8
0
 62
     0
 10
176.6
 20
46.5169
 30
0.0
 11
174.169
 21
60.3031
 31
0.0
  0
LINE
  8
0
 62
     0
 10
174.169
 20
60.3031
 30
0.0
 11
160.382
 21
57.8721
 31
0.0
  0
LINE
  8
0
 62
     0
 10
69.0481
 20
47.4719
 30
0.0
 11
82.834
 21
45.0398
 31
0.0
  0
LINE
  8
0
 62
     0
 10
82.834
 20
45.0398
 30
0.0
 11
85.266
 21
58.8271
 31
0.0
  0
LINE
  8
0
 62
     0
 10
85.266
 20
58.8271
 30
0.0
 11
71.4788
 21
61.2581
 31
0.0
  0
LINE
  8
0
 62
     0
 10
71.4788
 20
61.2581
 30
0.0
 11
69.0481
 21
47.4719
 31
0.0
  0
LINE
  8
0
 62
     0
 10
198.895
 20
58.8603
 30
0.0
 11
201.326
 21
45.073
 31
0.0
  0
LINE
  8
0
 62
     0
 10
201.326
 20
45.073
 30
0.0
 11
215.113
 21
47.5036
 31
0.0
  0
LINE
  8
0
 62
     0
 10
215.113
 20
47.5036
 30
0.0
 11
212.681
 21
61.2909
 31
0.0
  0
LINE
  8
0
 62
     0
 10
212.681
 20
61.2909
 30
0.0
 11
198.895
 21
58.8603
 31
0.0
  0
LINE
  8
0
 62
     0
 10
89.9569
 20
56.3577
 30
0.0
 11
103.746
 21
53.9267
 31
0.0
  0
LINE
  8
0
 62
     0
 10
103.746
 20
53.9267
 30
0.0
 11
106.177
 21
67.7139
 31
0.0
  0
LINE
  8
0
 62
     0
 10
106.177
 20
67.7139
 30
0.0
 11
92.3879
 21
70.1449
 31
0.0
  0
LINE
  8
0
 62
     0
 10
92.3879
 20
70.1449
 30
0.0
 11
89.9569
 21
56.3577
 31
0.0
  0
LINE
  8
0
 62
     0
 10
177.983
 20
67.7457
 30
0.0
 11
180.414
 21
53.9598
 31
0.0
  0
LINE
  8
0
 62
     0
 10
180.414
 20
53.9598
 30
0.0
 11
194.203
 21
56.3908
 31
0.0
  0
LINE
  8
0
 62
     0
 10
194.203
 20
56.3908
 30
0.0
 11
191.772
 21
70.1781
 31
0.0
  0
LINE
  8
0
 62
     0
 10
191.772
 20
70.1781
 30
0.0
 11
177.983
 21
67.7457
 31
0.0
  0
LINE
  8
0
 62
     0
 10
13.4262
 20
61.1477
 30
0.0
 11
27.2135
 21
58.7167
 31
0.0
  0
LINE
  8
0
 62
     0
 10
27.2135
 20
58.7167
 30
0.0
 11
29.6458
 21
72.5029
 31
0.0
  0
LINE
  8
0
 62
     0
 10
29.6458
 20
72.5029
 30
0.0
 11
15.8571
 21
74.9349
 31
0.0
  0
LINE
  8
0
 62
     0
 10
15.8571
 20
74.9349
 30
0.0
 11
13.4262
 21
61.1477
 31
0.0
  0
LINE
  8
0
 62
     0
 10
254.499
 20
72.6309
 30
0.0
 11
256.928
 21
58.8437
 31
0.0
  0
LINE
  8
0
 62
     0
 10
256.928
 20
58.8437
 30
0.0
 11
270.717
 21
61.2743
 31
0.0
  0
LINE
  8
0
 62
     0
 10
270.717
 20
61.2743
 30
0.0
 11
268.286
 21
75.0616
 31
0.0
  0
LINE
  8
0
 62
     0
 10
268.286
 20
75.0616
 30
0.0
 11
254.499
 21
72.6309
 31
0.0
  0
LINE
  8
0
 62
     0
 10
32.8497
 20
61.5915
 30
0.0
 11
46.6369
 21
59.1605
 31
0.0
  0
LINE
  8
0
 62
     0
 10
46.6369
 20
59.1605
 30
0.0
 11
49.0679
 21
72.9477
 31
0.0
  0
LINE
  8
0
 62
     0
 10
49.0679
 20
72.9477
 30
0.0
 11
35.2806
 21
75.3801
 31
0.0
  0
LINE
  8
0
 62
     0
 10
35.2806
 20
75.3801
 30
0.0
 11
32.8497
 21
61.5915
 31
0.0
  0
LINE
  8
0
 62
     0
 10
235.092
 20
72.9809
 30
0.0
 11
237.524
 21
59.1936
 31
0.0
  0
LINE
  8
0
 62
     0
 10
237.524
 20
59.1936
 30
0.0
 11
251.31
 21
61.6246
 31
0.0
  0
LINE
  8
0
 62
     0
 10
251.31
 20
61.6246
 30
0.0
 11
248.879
 21
75.4119
 31
0.0
  0
LINE
  8
0
 62
     0
 10
248.879
 20
75.4119
 30
0.0
 11
235.092
 21
72.9809
 31
0.0
  0
LINE
  8
0
 62
     0
 10
52.4372
 20
62.9737
 30
0.0
 11
66.2245
 21
60.5427
 31
0.0
  0
LINE
  8
0
 62
     0
 10
66.2245
 20
60.5427
 30
0.0
 11
68.6551
 21
74.3299
 31
0.0
  0
LINE
  8
0
 62
     0
 10
68.6551
 20
74.3299
 30
0.0
 11
54.8679
 21
76.7609
 31
0.0
  0
LINE
  8
0
 62
     0
 10
54.8679
 20
76.7609
 30
0.0
 11
52.4372
 21
62.9737
 31
0.0
  0
LINE
  8
0
 62
     0
 10
215.506
 20
74.3631
 30
0.0
 11
217.937
 21
60.5758
 31
0.0
  0
LINE
  8
0
 62
     0
 10
217.937
 20
60.5758
 30
0.0
 11
231.724
 21
63.0068
 31
0.0
  0
LINE
  8
0
 62
     0
 10
231.724
 20
63.0068
 30
0.0
 11
229.293
 21
76.7941
 31
0.0
  0
LINE
  8
0
 62
     0
 10
229.293
 20
76.7941
 30
0.0
 11
215.506
 21
74.3631
 31
0.0
  0
LINE
  8
0
 62
     0
 10
110.869
 20
65.2445
 30
0.0
 11
124.656
 21
62.8138
 31
0.0
  0
LINE
  8
0
 62
     0
 10
124.656
 20
62.8138
 30
0.0
 11
127.087
 21
76.6011
 31
0.0
  0
LINE
  8
0
 62
     0
 10
127.087
 20
76.6011
 30
0.0
 11
113.3
 21
79.0317
 31
0.0
  0
LINE
  8
0
 62
     0
 10
113.3
 20
79.0317
 30
0.0
 11
110.869
 21
65.2445
 31
0.0
  0
LINE
  8
0
 62
     0
 10
157.073
 20
76.6339
 30
0.0
 11
159.505
 21
62.8456
 31
0.0
  0
LINE
  8
0
 62
     0
 10
159.505
 20
62.8456
 30
0.0
 11
173.291
 21
65.2776
 31
0.0
  0
LINE
  8
0
 62
     0
 10
173.291
 20
65.2776
 30
0.0
 11
170.86
 21
79.0649
 31
0.0
  0
LINE
  8
0
 62
     0
 10
170.86
 20
79.0649
 30
0.0
 11
157.073
 21
76.6339
 31
0.0
  0
LINE
  8
0
 62
     0
 10
72.3554
 20
66.2326
 30
0.0
 11
86.1427
 21
63.8006
 31
0.0
  0
LINE
  8
0
 62
     0
 10
86.1427
 20
63.8006
 30
0.0
 11
88.5733
 21
77.5892
 31
0.0
  0
LINE
  8
0
 62
     0
 10
88.5733
 20
77.5892
 30
0.0
 11
74.7861
 21
80.0199
 31
0.0
  0
LINE
  8
0
 62
     0
 10
74.7861
 20
80.0199
 30
0.0
 11
72.3554
 21
66.2326
 31
0.0
  0
LINE
  8
0
 62
     0
 10
195.586
 20
77.6206
 30
0.0
 11
198.017
 21
63.8334
 31
0.0
  0
LINE
  8
0
 62
     0
 10
198.017
 20
63.8334
 30
0.0
 11
211.806
 21
66.2644
 31
0.0
  0
LINE
  8
0
 62
     0
 10
211.806
 20
66.2644
 30
0.0
 11
209.374
 21
80.053
 31
0.0
  0
LINE
  8
0
 62
     0
 10
209.374
 20
80.053
 30
0.0
 11
195.586
 21
77.6206
 31
0.0
  0
LINE
  8
0
 62
     0
 10
93.2656
 20
75.1184
 30
0.0
 11
107.053
 21
72.6874
 31
0.0
  0
LINE
  8
0
 62
     0
 10
107.053
 20
72.6874
 30
0.0
 11
109.485
 21
86.4747
 31
0.0
  0
LINE
  8
0
 62
     0
 10
109.485
 20
86.4747
 30
0.0
 11
95.6966
 21
88.9056
 31
0.0
  0
LINE
  8
0
 62
     0
 10
95.6966
 20
88.9056
 30
0.0
 11
93.2656
 21
75.1184
 31
0.0
  0
LINE
  8
0
 62
     0
 10
174.676
 20
86.5078
 30
0.0
 11
177.107
 21
72.7206
 31
0.0
  0
LINE
  8
0
 62
     0
 10
177.107
 20
72.7206
 30
0.0
 11
190.894
 21
75.1512
 31
0.0
  0
LINE
  8
0
 62
     0
 10
190.894
 20
75.1512
 30
0.0
 11
188.463
 21
88.9385
 31
0.0
  0
LINE
  8
0
 62
     0
 10
188.463
 20
88.9385
 30
0.0
 11
174.676
 21
86.5078
 31
0.0
  0
LINE
  8
0
 62
     0
 10
16.7349
 20
79.9084
 30
0.0
 11
30.5222
 21
77.4774
 31
0.0
  0
LINE
  8
0
 62
     0
 10
30.5222
 20
77.4774
 30
0.0
 11
32.953
 21
91.2647
 31
0.0
  0
LINE
  8
0
 62
     0
 10
32.953
 20
91.2647
 30
0.0
 11
19.1657
 21
93.6957
 31
0.0
  0
LINE
  8
0
 62
     0
 10
19.1657
 20
93.6957
 30
0.0
 11
16.7349
 21
79.9084
 31
0.0
  0
LINE
  8
0
 62
     0
 10
251.19
 20
91.3917
 30
0.0
 11
253.621
 21
77.603
 31
0.0
  0
LINE
  8
0
 62
     0
 10
253.621
 20
77.603
 30
0.0
 11
267.408
 21
80.035
 31
0.0
  0
LINE
  8
0
 62
     0
 10
267.408
 20
80.035
 30
0.0
 11
264.977
 21
93.8223
 31
0.0
  0
LINE
  8
0
 62
     0
 10
264.977
 20
93.8223
 30
0.0
 11
251.19
 21
91.3917
 31
0.0
  0
LINE
  8
0
 62
     0
 10
36.1569
 20
80.3522
 30
0.0
 11
49.9442
 21
77.9212
 31
0.0
  0
LINE
  8
0
 62
     0
 10
49.9442
 20
77.9212
 30
0.0
 11
52.3752
 21
91.7085
 31
0.0
  0
LINE
  8
0
 62
     0
 10
52.3752
 20
91.7085
 30
0.0
 11
38.5879
 21
94.1395
 31
0.0
  0
LINE
  8
0
 62
     0
 10
38.5879
 20
94.1395
 30
0.0
 11
36.1569
 21
80.3522
 31
0.0
  0
LINE
  8
0
 62
     0
 10
231.785
 20
91.7416
 30
0.0
 11
234.216
 21
77.9544
 31
0.0
  0
LINE
  8
0
 62
     0
 10
234.216
 20
77.9544
 30
0.0
 11
248.004
 21
80.385
 31
0.0
  0
LINE
  8
0
 62
     0
 10
248.004
 20
80.385
 30
0.0
 11
245.572
 21
94.1723
 31
0.0
  0
LINE
  8
0
 62
     0
 10
245.572
 20
94.1723
 30
0.0
 11
231.785
 21
91.7416
 31
0.0
  0
LINE
  8
0
 62
     0
 10
55.7445
 20
81.7344
 30
0.0
 11
69.5332
 21
79.3034
 31
0.0
  0
LINE
  8
0
 62
     0
 10
69.5332
 20
79.3034
 30
0.0
 11
71.9638
 21
93.0906
 31
0.0
  0
LINE
  8
0
 62
     0
 10
71.9638
 20
93.0906
 30
0.0
 11
58.1752
 21
95.5216
 31
0.0
  0
LINE
  8
0
 62
     0
 10
58.1752
 20
95.5216
 30
0.0
 11
55.7445
 21
81.7344
 31
0.0
  0
LINE
  8
0
 62
     0
 10
212.197
 20
93.1238
 30
0.0
 11
214.628
 21
79.338
 31
0.0
  0
LINE
  8
0
 62
     0
 10
214.628
 20
79.338
 30
0.0
 11
228.415
 21
81.7672
 31
0.0
  0
LINE
  8
0
 62
     0
 10
228.415
 20
81.7672
 30
0.0
 11
225.985
 21
95.5544
 31
0.0
  0
LINE
  8
0
 62
     0
 10
225.985
 20
95.5544
 30
0.0
 11
212.197
 21
93.1238
 31
0.0
  0
LINE
  8
0
 62
     0
 10
75.6638
 20
84.9919
 30
0.0
 11
89.45
 21
82.5609
 31
0.0
  0
LINE
  8
0
 62
     0
 10
89.45
 20
82.5609
 30
0.0
 11
91.882
 21
96.3482
 31
0.0
  0
LINE
  8
0
 62
     0
 10
91.882
 20
96.3482
 30
0.0
 11
78.0948
 21
98.7792
 31
0.0
  0
LINE
  8
0
 62
     0
 10
78.0948
 20
98.7792
 30
0.0
 11
75.6638
 21
84.9919
 31
0.0
  0
LINE
  8
0
 62
     0
 10
192.279
 20
96.3814
 30
0.0
 11
194.71
 21
82.5941
 31
0.0
  0
LINE
  8
0
 62
     0
 10
194.71
 20
82.5941
 30
0.0
 11
208.497
 21
85.0251
 31
0.0
  0
LINE
  8
0
 62
     0
 10
208.497
 20
85.0251
 30
0.0
 11
206.065
 21
98.8123
 31
0.0
  0
LINE
  8
0
 62
     0
 10
206.065
 20
98.8123
 30
0.0
 11
192.279
 21
96.3814
 31
0.0
  0
ENDSEC
  0
EOF
