0
SECTION
2
HEADER
9
$INSUNITS
70
4
9
$ACADVER
1
AC1014
9
$HANDSEED
5
FFFF
0
ENDSEC
0
SECTION
2
TABLES
0
TABLE
2
VPORT
5
8
100
AcDbSymbolTable
0
ENDTAB
0
TABLE
2
LTYPE
5
5
100
AcDbSymbolTable
0
LTYPE
5
14
100
AcDbSymbolTableRecord
100
AcDbLinetypeTableRecord
2
BYBLOCK
70
0
0
LTYPE
5
15
100
AcDbSymbolTableRecord
100
AcDbLinetypeTableRecord
2
BYLAYER
70
0
0
ENDTAB
0
TABLE
2
LAYER
5
2
100
AcDbSymbolTable
70
2
0
LAYER
5
50
100
AcDbSymbolTableRecord
100
AcDbLayerTableRecord
2
0
70
0
6
CONTINUOUS
0
ENDTAB
0
TABLE
2
STYLE
5
3
100
AcDbSymbolTable
70
1
0
STYLE
5
11
100
AcDbSymbolTableRecord
100
AcDbTextStyleTableRecord
2
STANDARD
70
0
0
ENDTAB
0
TABLE
2
VIEW
5
6
100
AcDbSymbolTable
70
0
0
ENDTAB
0
TABLE
2
UCS
5
7
100
AcDbSymbolTable
70
0
0
ENDTAB
0
TABLE
2
APPID
5
9
100
AcDbSymbolTable
70
2
0
APPID
5
12
100
AcDbSymbolTableRecord
100
AcDbRegAppTableRecord
2
ACAD
70
0
0
ENDTAB
0
TABLE
2
DIMSTYLE
5
A
100
AcDbSymbolTable
70
1
0
ENDTAB
0
TABLE
2
BLOCK_RECORD
5
1
100
AcDbSymbolTable
70
1
0
BLOCK_RECORD
5
1F
100
AcDbSymbolTableRecord
100
AcDbBlockTableRecord
2
*MODEL_SPACE
0
BLOCK_RECORD
5
1B
100
AcDbSymbolTableRecord
100
AcDbBlockTableRecord
2
*PAPER_SPACE
0
ENDTAB
0
ENDSEC
0
SECTION
2
BLOCKS
0
BLOCK
5
20
100
AcDbEntity
100
AcDbBlockBegin
2
*MODEL_SPACE
0
ENDBLK
5
21
100
AcDbEntity
100
AcDbBlockEnd
0
BLOCK
5
1C
100
AcDbEntity
100
AcDbBlockBegin
2
*PAPER_SPACE
0
ENDBLK
5
1D
100
AcDbEntity
100
AcDbBlockEnd
0
ENDSEC
0
SECTION
2
ENTITIES
0
LWPOLYLINE
5
100
100
AcDbEntity
8
0
100
AcDbPolyline
90
4
70
1
43
0.0
10
26.233699999999999
20
24.0702
10
28.6646
20
37.857599999999998
10
42.451900000000002
20
35.426600000000001
10
40.020899999999997
20
21.639300000000002
0
LWPOLYLINE
5
101
100
AcDbEntity
8
0
100
AcDbPolyline
90
4
70
1
43
0.0
10
183.21600000000001
20
8.9958299999999998
10
169.42900000000003
20
6.5649800000000003
10
166.99799999999999
20
20.350899999999999
10
180.78500000000003
20
22.781700000000001
0
LWPOLYLINE
5
102
100
AcDbEntity
8
0
100
AcDbPolyline
90
4
70
1
43
0.0
10
206.065
20
98.812300000000008
10
208.49700000000001
20
85.025099999999995
10
194.71000000000004
20
82.594100000000012
10
192.27900000000005
20
96.381399999999999
0
LWPOLYLINE
5
103
100
AcDbEntity
8
0
100
AcDbPolyline
90
4
70
1
43
0.0
10
240.83200000000002
20
40.432899999999997
10
238.40100000000001
20
54.220199999999998
10
252.18800000000002
20
56.65120000000001
10
254.61900000000003
20
42.863900000000001
0
LWPOLYLINE
5
104
100
AcDbEntity
8
0
100
AcDbPolyline
90
4
70
1
43
0.0
10
71.478800000000007
20
61.258100000000006
10
85.266000000000005
20
58.827100000000002
10
82.834000000000003
20
45.0398
10
69.048100000000005
20
47.471899999999998
0
LWPOLYLINE
5
105
100
AcDbEntity
8
0
100
AcDbPolyline
90
4
70
1
43
0.0
10
114.73100000000002
20
6.5318900000000006
10
100.944
20
8.9627800000000022
10
103.375
20
22.75
10
117.16300000000001
20
20.317799999999998
0
LWPOLYLINE
5
106
100
AcDbEntity
8
0
100
AcDbPolyline
90
4
70
1
43
0.0
10
83.340900000000019
20
18.836400000000001
10
85.771900000000002
20
32.623699999999999
10
99.560600000000008
20
30.192800000000002
10
97.129600000000011
20
16.405500000000004
0
LWPOLYLINE
5
107
100
AcDbEntity
8
0
100
AcDbPolyline
90
4
70
1
43
0.0
10
163.68899999999999
20
39.1128
10
177.47600000000003
20
41.543799999999997
10
179.90700000000001
20
27.755100000000002
10
166.12099999999998
20
25.324200000000001
0
LWPOLYLINE
5
108
100
AcDbEntity
8
0
100
AcDbPolyline
90
4
70
1
43
0.0
10
45.821199999999997
20
25.452400000000001
10
48.251899999999999
20
39.2395
10
62.039100000000005
20
36.808800000000005
10
59.607100000000003
20
23.021500000000003
0
LWPOLYLINE
5
109
100
AcDbEntity
8
0
100
AcDbPolyline
90
4
70
1
43
0.0
10
86.649600000000007
20
37.596899999999998
10
89.080600000000004
20
51.3842
10
102.86900000000001
20
48.953600000000002
10
100.43700000000001
20
35.166200000000003
0
LWPOLYLINE
5
110
100
AcDbEntity
8
0
100
AcDbPolyline
90
4
70
1
43
0.0
10
204.63300000000001
20
26.312200000000004
10
202.20200000000003
20
40.099499999999999
10
215.99000000000004
20
42.530500000000011
10
218.42200000000003
20
28.743099999999998
0
LWPOLYLINE
5
111
100
AcDbEntity
8
0
100
AcDbPolyline
90
4
70
1
43
0.0
10
257.92700000000002
20
24.103300000000001
10
244.14000000000001
20
21.6724
10
241.708
20
35.459800000000001
10
255.495
20
37.8904
0
LWPOLYLINE
5
112
100
AcDbEntity
8
0
100
AcDbPolyline
90
4
70
1
43
0.0
10
248.00400000000002
20
80.385000000000005
10
234.21599999999998
20
77.954400000000007
10
231.785
20
91.741600000000005
10
245.572
20
94.172300000000021
0
LWPOLYLINE
5
113
100
AcDbEntity
8
0
100
AcDbPolyline
90
4
70
1
43
0.0
10
107.56
20
46.484099999999998
10
109.991
20
60.27000000000001
10
123.779
20
57.838999999999999
10
121.34700000000002
20
44.051699999999997
0
LWPOLYLINE
5
114
100
AcDbEntity
8
0
100
AcDbPolyline
90
4
70
1
43
0.0
10
212.68100000000001
20
61.290900000000008
10
215.11300000000003
20
47.503599999999999
10
201.32599999999999
20
45.073
10
198.89500000000001
20
58.860300000000009
0
LWPOLYLINE
5
115
100
AcDbEntity
8
0
100
AcDbPolyline
90
4
70
1
43
0.0
10
32.849699999999999
20
61.591500000000003
10
35.2806
20
75.380099999999999
10
49.067900000000009
20
72.947699999999998
10
46.636899999999997
20
59.160499999999999
0
LWPOLYLINE
5
116
100
AcDbEntity
8
0
100
AcDbPolyline
90
4
70
1
43
0.0
10
38.587899999999998
20
94.139499999999998
10
52.3752
20
91.708500000000001
10
49.944200000000009
20
77.921199999999999
10
36.1569
20
80.352200000000011
0
LWPOLYLINE
5
117
100
AcDbEntity
8
0
100
AcDbPolyline
90
4
70
1
43
0.0
10
225.98500000000001
20
95.554400000000015
10
228.41499999999999
20
81.767200000000017
10
214.62800000000001
20
79.338000000000022
10
212.19700000000003
20
93.123800000000017
0
LWPOLYLINE
5
118
100
AcDbEntity
8
0
100
AcDbPolyline
90
4
70
1
43
0.0
10
191.77200000000002
20
70.178100000000001
10
194.203
20
56.390799999999999
10
180.41400000000004
20
53.959800000000008
10
177.983
20
67.745699999999999
0
LWPOLYLINE
5
119
100
AcDbEntity
8
0
100
AcDbPolyline
90
4
70
1
43
0.0
10
170.86000000000001
20
79.064899999999994
10
173.291
20
65.277600000000007
10
159.505
20
62.845599999999997
10
157.07299999999998
20
76.633899999999997
0
LWPOLYLINE
5
120
100
AcDbEntity
8
0
100
AcDbPolyline
90
4
70
1
43
0.0
10
268.286
20
75.061599999999999
10
270.71699999999998
20
61.274300000000004
10
256.928
20
58.843700000000005
10
254.49900000000002
20
72.630899999999997
0
LWPOLYLINE
5
121
100
AcDbEntity
8
0
100
AcDbPolyline
90
4
70
1
43
0.0
10
184.59900000000002
20
30.225900000000003
10
198.38800000000003
20
32.656700000000001
10
200.81900000000005
20
18.869499999999999
10
187.03
20
16.438600000000001
0
LWPOLYLINE
5
122
100
AcDbEntity
8
0
100
AcDbPolyline
90
4
70
1
43
0.0
10
238.34000000000003
20
25.485399999999998
10
224.553
20
23.054600000000001
10
222.12200000000001
20
36.841999999999999
10
235.90900000000005
20
39.272599999999997
0
LWPOLYLINE
5
123
100
AcDbEntity
8
0
100
AcDbPolyline
90
4
70
1
43
0.0
10
103.74600000000001
20
53.926699999999997
10
89.956900000000019
20
56.357700000000008
10
92.387900000000002
20
70.144900000000007
10
106.17700000000001
20
67.713899999999995
0
LWPOLYLINE
5
124
100
AcDbEntity
8
0
100
AcDbPolyline
90
4
70
1
43
0.0
10
188.46299999999999
20
88.938500000000005
10
190.89400000000001
20
75.151200000000003
10
177.107
20
72.720600000000005
10
174.67600000000002
20
86.507800000000003
0
LWPOLYLINE
5
125
100
AcDbEntity
8
0
100
AcDbPolyline
90
4
70
1
43
0.0
10
257.80599999999998
20
53.868800000000007
10
271.59300000000002
20
56.299799999999998
10
274.024
20
42.513999999999996
10
260.23700000000008
20
40.082999999999998
0
LWPOLYLINE
5
126
100
AcDbEntity
8
0
100
AcDbPolyline
90
4
70
1
43
0.0
10
122.964
20
24.130800000000004
10
136.751
20
21.699999999999999
10
134.31999999999999
20
7.9140800000000011
10
120.533
20
10.344900000000001
0
LWPOLYLINE
5
127
100
AcDbEntity
8
0
100
AcDbPolyline
90
4
70
1
43
0.0
10
29.541000000000004
20
42.830800000000011
10
31.971900000000005
20
56.618000000000002
10
45.7592
20
54.187399999999997
10
43.32820000000001
20
40.400100000000009
0
LWPOLYLINE
5
128
100
AcDbEntity
8
0
100
AcDbPolyline
90
4
70
1
43
0.0
10
237.524
20
59.193600000000011
10
235.09200000000004
20
72.980900000000005
10
248.87900000000002
20
75.411900000000003
10
251.31
20
61.624600000000001
0
LWPOLYLINE
5
129
100
AcDbEntity
8
0
100
AcDbPolyline
90
4
70
1
43
0.0
10
30.522200000000002
20
77.477400000000003
10
16.734900000000003
20
79.9084
10
19.165700000000001
20
93.695700000000016
10
32.953000000000003
20
91.264700000000005
0
LWPOLYLINE
5
130
100
AcDbEntity
8
0
100
AcDbPolyline
90
4
70
1
43
0.0
10
104.253
20
27.723400000000002
10
106.684
20
41.5107
10
120.471
20
39.079700000000003
10
118.04000000000002
20
25.2911
0
LWPOLYLINE
5
131
100
AcDbEntity
8
0
100
AcDbPolyline
90
4
70
1
43
0.0
10
195.58599999999998
20
77.620599999999996
10
209.37400000000002
20
80.052999999999997
10
211.80599999999998
20
66.264399999999995
10
198.017
20
63.833400000000005
0
LWPOLYLINE
5
132
100
AcDbEntity
8
0
100
AcDbPolyline
90
4
70
1
43
0.0
10
183.72299999999998
20
35.197800000000001
10
181.292
20
48.986400000000003
10
195.07900000000004
20
51.417400000000001
10
197.51000000000002
20
37.630099999999999
0
LWPOLYLINE
5
133
100
AcDbEntity
8
0
100
AcDbPolyline
90
4
70
1
43
0.0
10
79.526700000000005
20
26.279199999999999
10
65.739400000000003
20
28.710000000000004
10
68.170100000000005
20
42.498800000000003
10
81.957300000000004
20
40.067799999999998
0
LWPOLYLINE
5
134
100
AcDbEntity
8
0
100
AcDbPolyline
90
4
70
1
43
0.0
10
15.857100000000003
20
74.934899999999999
10
29.645800000000001
20
72.502899999999997
10
27.213500000000003
20
58.71670000000001
10
13.426200000000001
20
61.1477
0
LWPOLYLINE
5
135
100
AcDbEntity
8
0
100
AcDbPolyline
90
4
70
1
43
0.0
10
160.38200000000001
20
57.87210000000001
10
174.16900000000001
20
60.303100000000001
10
176.59999999999999
20
46.516900000000007
10
162.81299999999999
20
44.084899999999998
0
LWPOLYLINE
5
136
100
AcDbEntity
8
0
100
AcDbPolyline
90
4
70
1
43
0.0
10
264.97700000000003
20
93.822299999999998
10
267.40800000000002
20
80.035000000000011
10
253.62099999999998
20
77.603000000000009
10
251.19
20
91.3917
0
LWPOLYLINE
5
137
100
AcDbEntity
8
0
100
AcDbPolyline
90
4
70
1
43
0.0
10
217.93700000000001
20
60.575800000000008
10
215.506
20
74.363100000000003
10
229.29300000000001
20
76.794100000000014
10
231.72400000000005
20
63.006799999999998
0
LWPOLYLINE
5
138
100
AcDbEntity
8
0
100
AcDbPolyline
90
4
70
1
43
0.0
10
55.744500000000002
20
81.734399999999994
10
58.175200000000004
20
95.521600000000007
10
71.96380000000002
20
93.090600000000009
10
69.533199999999994
20
79.303399999999996
0
LWPOLYLINE
5
139
100
AcDbEntity
8
0
100
AcDbPolyline
90
4
70
1
43
0.0
10
93.265600000000006
20
75.118399999999994
10
95.696600000000004
20
88.905600000000007
10
109.48500000000001
20
86.474699999999999
10
107.05300000000001
20
72.687399999999997
0
LWPOLYLINE
5
140
100
AcDbEntity
8
0
100
AcDbPolyline
90
4
70
1
43
0.0
10
149.82399999999998
20
7.913859999999997
10
147.392
20
21.699699999999993
10
161.18100000000001
20
24.131999999999998
10
163.61199999999999
20
10.3447
0
LWPOLYLINE
5
141
100
AcDbEntity
8
0
100
AcDbPolyline
90
4
70
1
43
0.0
10
218.81299999999999
20
55.602400000000003
10
232.601
20
58.0334
10
235.03100000000001
20
44.246100000000006
10
221.24400000000006
20
41.813700000000004
0
LWPOLYLINE
5
142
100
AcDbEntity
8
0
100
AcDbPolyline
90
4
70
1
43
0.0
10
68.655100000000004
20
74.329900000000009
10
66.224500000000006
20
60.542700000000011
10
52.437199999999997
20
62.973700000000008
10
54.867899999999999
20
76.760900000000007
0
LWPOLYLINE
5
143
100
AcDbEntity
8
0
100
AcDbPolyline
90
4
70
1
43
0.0
10
74.786100000000005
20
80.019900000000007
10
88.573300000000017
20
77.589200000000005
10
86.142700000000019
20
63.800600000000003
10
72.355400000000003
20
66.232600000000005
0
LWPOLYLINE
5
144
100
AcDbEntity
8
0
100
AcDbPolyline
90
4
70
1
43
0.0
10
89.450000000000003
20
82.560900000000004
10
75.663799999999995
20
84.991900000000001
10
78.094800000000006
20
98.779200000000017
10
91.882000000000005
20
96.34820000000002
0
LWPOLYLINE
5
145
100
AcDbEntity
8
0
100
AcDbPolyline
90
4
70
1
43
0.0
10
12.549799999999999
20
56.174199999999999
10
26.337100000000003
20
53.743600000000001
10
23.906199999999998
20
39.954900000000002
10
10.1189
20
42.387000000000008
0
LWPOLYLINE
5
146
100
AcDbEntity
8
0
100
AcDbPolyline
90
4
70
1
43
0.0
10
49.128500000000003
20
44.212899999999998
10
51.559200000000004
20
58.0002
10
65.347899999999996
20
55.569600000000001
10
62.917200000000008
20
41.782299999999999
0
LWPOLYLINE
5
147
100
AcDbEntity
8
0
100
AcDbPolyline
90
4
70
1
43
0.0
10
124.65600000000002
20
62.813800000000001
10
110.869
20
65.244500000000002
10
113.3
20
79.031700000000001
10
127.087
20
76.601100000000002
0
LINE
5
148
100
AcDbEntity
8
0
100
AcDbLine
10
185.94424281415303
20
115.0309952993763
30
0
11
185.93839021012857
21
115.06418629821678
31
0
0
LWPOLYLINE
5
149
100
AcDbEntity
8
0
100
AcDbPolyline
90
4
70
1
43
0.0
10
139.32992174361425
20
42.280995299376301
10
144.82992174361425
20
42.280995299376301
10
144.82992174361425
20
47.780995299376308
10
139.32992174361425
20
47.780995299376308
0
LWPOLYLINE
5
150
100
AcDbEntity
8
0
100
AcDbPolyline
90
11
70
1
43
0.0
10
18.050823693306569
20
107.5309952993763
10
6.5802212086698706
20
42.473818707915001
10
2.739928307545636
20
20.69304356850969
10
116.08167079890264
20
0.70890572816633568
10
168.07348691707551
20
0.74114860940208471
10
281.42014742186177
20
20.725824730970221
10
276.25532670201284
20
50.014671082139742
10
266.11284790701347
20
107.5309952993763
10
159.07992174361422
20
107.5309952993763
10
125.07992174361425
20
107.5309952993763
10
98.222694141353202
20
107.5309952993763
0
LINE
5
151
100
AcDbEntity
8
0
100
AcDbLine
10
142.07992174361425
20
47.530995299376301
30
0
11
139.32992174361425
21
47.530995299376301
31
0
0
LINE
5
152
100
AcDbEntity
8
0
100
AcDbLine
10
142.07992174361425
20
47.530995299376301
30
0
11
144.82992174361425
21
47.530995299376301
31
0
0
ENDSEC
0
SECTION
2
OBJECTS
0
DICTIONARY
5
C
100
AcDbDictionary
3
ACAD_GROUP
350
D
3
ACAD_MLINESTYLE
350
17
0
DICTIONARY
5
D
100
AcDbDictionary
0
DICTIONARY
5
1A
330
C
100
AcDbDictionary
0
DICTIONARY
5
17
100
AcDbDictionary
0
ENDSEC
0
EOF
