0
SECTION
2
HEADER
9
$INSUNITS
70
4
9
$ACADVER
1
AC1014
9
$HANDSEED
5
FFFF
0
ENDSEC
0
SECTION
2
TABLES
0
TABLE
2
VPORT
5
8
100
AcDbSymbolTable
0
ENDTAB
0
TABLE
2
LTYPE
5
5
100
AcDbSymbolTable
0
LTYPE
5
14
100
AcDbSymbolTableRecord
100
AcDbLinetypeTableRecord
2
BYBLOCK
70
0
0
LTYPE
5
15
100
AcDbSymbolTableRecord
100
AcDbLinetypeTableRecord
2
BYLAYER
70
0
0
ENDTAB
0
TABLE
2
LAYER
5
2
100
AcDbSymbolTable
70
2
0
LAYER
5
50
100
AcDbSymbolTableRecord
100
AcDbLayerTableRecord
2
0
70
0
6
CONTINUOUS
0
ENDTAB
0
TABLE
2
STYLE
5
3
100
AcDbSymbolTable
70
1
0
STYLE
5
11
100
AcDbSymbolTableRecord
100
AcDbTextStyleTableRecord
2
STANDARD
70
0
0
ENDTAB
0
TABLE
2
VIEW
5
6
100
AcDbSymbolTable
70
0
0
ENDTAB
0
TABLE
2
UCS
5
7
100
AcDbSymbolTable
70
0
0
ENDTAB
0
TABLE
2
APPID
5
9
100
AcDbSymbolTable
70
2
0
APPID
5
12
100
AcDbSymbolTableRecord
100
AcDbRegAppTableRecord
2
ACAD
70
0
0
ENDTAB
0
TABLE
2
DIMSTYLE
5
A
100
AcDbSymbolTable
70
1
0
ENDTAB
0
TABLE
2
BLOCK_RECORD
5
1
100
AcDbSymbolTable
70
1
0
BLOCK_RECORD
5
1F
100
AcDbSymbolTableRecord
100
AcDbBlockTableRecord
2
*MODEL_SPACE
0
BLOCK_RECORD
5
1B
100
AcDbSymbolTableRecord
100
AcDbBlockTableRecord
2
*PAPER_SPACE
0
ENDTAB
0
ENDSEC
0
SECTION
2
BLOCKS
0
BLOCK
5
20
100
AcDbEntity
100
AcDbBlockBegin
2
*MODEL_SPACE
0
ENDBLK
5
21
100
AcDbEntity
100
AcDbBlockEnd
0
BLOCK
5
1C
100
AcDbEntity
100
AcDbBlockBegin
2
*PAPER_SPACE
0
ENDBLK
5
1D
100
AcDbEntity
100
AcDbBlockEnd
0
ENDSEC
0
SECTION
2
ENTITIES
0
LINE
5
100
100
AcDbEntity
8
0
100
AcDbLine
10
142.07992174361425
20
47.780995299376308
30
0
11
142.07992174361425
21
45.030995299376301
31
0
0
LINE
5
101
100
AcDbEntity
8
0
100
AcDbLine
10
192.19027955259429
20
108.17744190878302
30
0
11
191.48317277140774
21
108.88454868996959
31
0
0
LINE
5
102
100
AcDbEntity
8
0
100
AcDbLine
10
180.98317277140774
20
108.17744190878301
30
0
11
181.69027955259429
21
108.88454868996959
31
0
0
LINE
5
103
100
AcDbEntity
8
0
100
AcDbLine
10
185.94424281415303
20
115.0309952993763
30
0
11
185.93839021012857
21
115.06418629821678
31
0
0
LINE
5
104
100
AcDbEntity
8
0
100
AcDbLine
10
139.32992174361425
20
42.280995299376301
30
0
11
139.32992174361425
21
47.780995299376308
31
0
0
CIRCLE
5
105
100
AcDbEntity
8
0
100
AcDbCircle
10
120.93393459744659
20
-1.7880856065731932
30
0
40
1.7500000000000051
210
0
220
0
230
1
0
LWPOLYLINE
5
106
100
AcDbEntity
8
0
100
AcDbPolyline
90
17
70
1
43
0.0
10
11.320404501628815
20
112.55190754686626
10
-0.80585117048357691
20
43.776099326639908
10
-5.4275110542417027
20
17.56368863539381
42
0.414213041860441
10
-2.9939996005083103
20
14.088348361981991
10
115.42784823772236
20
-6.7915011840741109
10
168.73191439605137
20
-6.7584445070267263
10
287.15417735202487
20
14.121134654975766
42
0.41422101282773172
10
289.58768440745189
20
17.596548484141991
10
283.64136730239829
20
51.317131925872928
10
272.84316083012732
20
112.55197963686956
42
0.36396641985299188
10
269.8887445899731
20
115.0309952993763
10
153.59747546834527
20
115.0309952993763
10
151.57992174361422
20
115.0309952993763
10
132.57992174361425
20
115.0309952993763
10
130.56236801888321
20
115.0309952993763
10
98.222694141353202
20
115.0309952993763
10
14.274833453290192
20
115.03099529937631
42
0.36397332814529609
0
LWPOLYLINE
5
107
100
AcDbEntity
8
0
100
AcDbPolyline
90
4
70
1
43
0.0
10
122.964
20
24.130800000000004
10
136.751
20
21.699999999999999
10
134.31999999999999
20
7.9140800000000011
10
120.533
20
10.344900000000001
0
CIRCLE
5
108
100
AcDbEntity
8
0
100
AcDbCircle
10
169.76731240711024
20
108.5309952993763
30
0
40
1.7500000000000058
210
0
220
0
230
1
0
LINE
5
109
100
AcDbEntity
8
0
100
AcDbLine
10
144.82992174361425
20
42.280995299376301
30
0
11
139.32992174361425
21
42.280995299376301
31
0
0
LINE
5
110
100
AcDbEntity
8
0
100
AcDbLine
10
181.69027955259429
20
108.17744190878301
30
0
11
180.98317277140774
21
108.88454868996959
31
0
0
LWPOLYLINE
5
111
100
AcDbEntity
8
0
100
AcDbPolyline
90
4
70
1
43
0.0
10
163.61199999999999
20
10.3447
10
149.82399999999998
20
7.913859999999997
10
147.392
20
21.699699999999993
10
161.18100000000001
20
24.131999999999998
0
LINE
5
112
100
AcDbEntity
8
0
100
AcDbLine
10
144.82992174361425
20
42.280995299376301
30
0
11
139.32992174361425
21
47.780995299376308
31
0
0
LINE
5
113
100
AcDbEntity
8
0
100
AcDbLine
10
139.32992174361425
20
42.280995299376301
30
0
11
144.82992174361425
21
47.780995299376308
31
0
0
LINE
5
114
100
AcDbEntity
8
0
100
AcDbLine
10
144.82992174361425
20
47.780995299376308
30
0
11
144.82992174361425
21
42.280995299376301
31
0
0
LINE
5
115
100
AcDbEntity
8
0
100
AcDbLine
10
139.32992174361425
20
47.780995299376308
30
0
11
144.82992174361425
21
47.780995299376308
31
0
0
CIRCLE
5
116
100
AcDbEntity
8
0
100
AcDbCircle
10
266.7190776625369
20
108.85851932928344
30
0
40
1.7499999999999969
210
0
220
0
230
1
0
CIRCLE
5
117
100
AcDbEntity
8
0
100
AcDbCircle
10
163.20774098577775
20
-1.7892774251914378
30
0
40
1.7500000000000051
210
0
220
0
230
1
0
LINE
5
118
100
AcDbEntity
8
0
100
AcDbLine
10
-1.1506996121909119
20
18.198730696034602
30
0
11
0.24186614769401926
21
19.258570591677383
31
0
0
CIRCLE
5
119
100
AcDbEntity
8
0
100
AcDbCircle
10
0.24186614769401926
20
19.258570591677383
30
0
40
1.7500000000000002
210
0
220
0
230
1
0
LINE
5
120
100
AcDbEntity
8
0
100
AcDbLine
10
114.3925310801182
20
110.28099529937631
30
0
11
114.3925310801182
21
108.5309952993763
31
0
0
CIRCLE
5
121
100
AcDbEntity
8
0
100
AcDbCircle
10
114.3925310801182
20
108.5309952993763
30
0
40
1.7500000000000058
210
0
220
0
230
1
0
LINE
5
122
100
AcDbEntity
8
0
100
AcDbLine
10
15.160226390583091
20
110.5022123155844
30
0
11
16.196877878058022
21
109.09229966101462
31
0
0
CIRCLE
5
123
100
AcDbEntity
8
0
100
AcDbCircle
10
16.196877878058022
20
109.09229966101462
30
0
40
1.7499999999999969
210
0
220
0
230
1
0
CIRCLE
5
124
100
AcDbEntity
8
0
100
AcDbCircle
10
283.90254641564655
20
19.342063650179099
30
0
40
1.7500000000000002
210
0
220
0
230
1
0
LINE
5
125
100
AcDbEntity
8
0
100
AcDbLine
10
35.492894415102725
20
93.863138609189576
30
0
11
16.732161866954765
21
97.171062628000186
31
0
0
LINE
5
126
100
AcDbEntity
8
0
100
AcDbLine
10
16.732161866954765
20
97.171062628000186
30
0
11
13.259586265668268
21
77.474896103556645
31
0
0
LINE
5
127
100
AcDbEntity
8
0
100
AcDbLine
10
54.914796579352803
20
94.306991124091553
30
0
11
36.15440343233076
21
97.614855299122951
31
0
0
LINE
5
128
100
AcDbEntity
8
0
100
AcDbLine
10
36.15440343233076
20
97.614855299122951
30
0
11
35.492894415102725
21
93.863138609189576
31
0
0
LINE
5
129
100
AcDbEntity
8
0
100
AcDbLine
10
95.357562482335979
20
98.781656258157881
30
0
11
75.661304078449561
21
102.25455896355477
31
0
0
LINE
5
130
100
AcDbEntity
8
0
100
AcDbLine
10
75.661304078449561
20
102.25455896355477
30
0
11
74.503667214712721
21
95.68907696791554
31
0
0
LINE
5
131
100
AcDbEntity
8
0
100
AcDbLine
10
94.19938781860985
20
92.215825032339055
30
0
11
95.357562482335979
21
98.781656258157881
31
0
0
LINE
5
132
100
AcDbEntity
8
0
100
AcDbLine
10
74.503667214712721
20
95.68907696791554
30
0
11
55.741636350184756
21
98.996918012812586
31
0
0
LINE
5
133
100
AcDbEntity
8
0
100
AcDbLine
10
55.741636350184756
20
98.996918012812586
30
0
11
54.914796579352803
21
94.306991124091553
31
0
0
LINE
5
134
100
AcDbEntity
8
0
100
AcDbLine
10
111.80233012117307
20
82.341997938642493
30
0
11
112.96057390475964
21
88.908221013248991
31
0
0
LINE
5
135
100
AcDbEntity
8
0
100
AcDbLine
10
112.96057390475964
20
88.908221013248991
30
0
11
94.19938781860985
21
92.215825032339055
31
0
0
LINE
5
136
100
AcDbEntity
8
0
100
AcDbLine
10
127.08950562268504
20
59.338496055965059
30
0
11
130.56236801888321
21
79.034668707179947
31
0
0
LINE
5
137
100
AcDbEntity
8
0
100
AcDbLine
10
130.56236801888321
20
79.034668707179947
30
0
11
111.80233012117307
21
82.341997938642493
31
0
0
LINE
5
138
100
AcDbEntity
8
0
100
AcDbLine
10
123.78023549224586
20
40.576079403523948
30
0
11
127.25456765347366
21
60.272485573958214
31
0
0
LINE
5
139
100
AcDbEntity
8
0
100
AcDbLine
10
127.25456765347366
20
60.272485573958214
30
0
11
127.25419967023889
21
60.272550454089028
31
0
0
LINE
5
140
100
AcDbEntity
8
0
100
AcDbLine
10
123.94630572844372
20
41.513193973036792
30
0
11
123.9455602696451
21
41.513325416450108
31
0
0
LINE
5
141
100
AcDbEntity
8
0
100
AcDbLine
10
97.468639676768461
20
6.5292720813967984
30
0
11
117.16423989019633
21
3.0565921943423535
31
0
0
LINE
5
142
100
AcDbEntity
8
0
100
AcDbLine
10
117.16423989019633
20
3.0565921943423535
30
0
11
117.99163167072977
21
7.7467026471277078
31
0
0
LINE
5
143
100
AcDbEntity
8
0
100
AcDbLine
10
98.626389603273765
20
13.095357207563991
30
0
11
97.468639676768461
21
6.5292720813967984
31
0
0
LINE
5
144
100
AcDbEntity
8
0
100
AcDbLine
10
79.865531991960168
20
16.402831354317659
30
0
11
98.626389603273765
21
13.095357207563991
31
0
0
LINE
5
145
100
AcDbEntity
8
0
100
AcDbLine
10
81.023302055857982
20
22.969068788286542
30
0
11
79.865531991960168
21
16.402831354317659
31
0
0
LINE
5
146
100
AcDbEntity
8
0
100
AcDbLine
10
63.198509638493704
20
26.1117076956962
30
0
11
81.023302055857982
21
22.969068788286542
31
0
0
LINE
5
147
100
AcDbEntity
8
0
100
AcDbLine
10
43.281350616087906
20
22.853974956641213
30
0
11
62.040383369130808
21
19.546150823333125
31
0
0
LINE
5
148
100
AcDbEntity
8
0
100
AcDbLine
10
62.040383369130808
20
19.546150823333125
30
0
11
63.198509638493704
21
26.1117076956962
31
0
0
LINE
5
149
100
AcDbEntity
8
0
100
AcDbLine
10
22.758366129371254
20
21.636682003694897
30
0
11
42.454399585975366
21
18.163961819055597
31
0
0
LINE
5
150
100
AcDbEntity
8
0
100
AcDbLine
10
42.454399585975366
20
18.163961819055597
30
0
11
43.281350616087906
21
22.853974956641213
31
0
0
LINE
5
151
100
AcDbEntity
8
0
100
AcDbLine
10
25.40440584530306
20
36.64429563627467
30
0
11
22.758366129371254
21
21.636682003694897
31
0
0
LINE
5
152
100
AcDbEntity
8
0
100
AcDbLine
10
6.6436021238294174
20
39.953729008363197
30
0
11
25.40440584530306
21
36.64429563627467
31
0
0
LINE
5
153
100
AcDbEntity
8
0
100
AcDbLine
10
10.116271656968257
20
59.649475187676103
30
0
11
6.6436021238294174
21
39.953729008363197
31
0
0
LINE
5
154
100
AcDbEntity
8
0
100
AcDbLine
10
13.423613909420656
20
78.410414828554678
30
0
11
9.9508618190556
21
58.714200414024631
31
0
0
LINE
5
155
100
AcDbEntity
8
0
100
AcDbLine
10
9.9508618190556
20
58.714200414024631
30
0
11
9.9513527558998085
21
58.714113851211884
31
0
0
LINE
5
156
100
AcDbEntity
8
0
100
AcDbLine
10
172.35836303277341
20
82.37537872378158
30
0
11
153.59747546834527
21
79.067355392445933
31
0
0
LINE
5
157
100
AcDbEntity
8
0
100
AcDbLine
10
153.59747546834527
20
79.067355392445933
30
0
11
157.07171965529128
21
59.370019404424788
31
0
0
LINE
5
158
100
AcDbEntity
8
0
100
AcDbLine
10
189.96136606711684
20
92.248935320134223
30
0
11
171.20063198119712
21
88.941347277583617
31
0
0
LINE
5
159
100
AcDbEntity
8
0
100
AcDbLine
10
171.20063198119712
20
88.941347277583617
30
0
11
172.35836303277341
21
82.37537872378158
31
0
0
LINE
5
160
100
AcDbEntity
8
0
100
AcDbLine
10
208.49828034994775
20
102.28764486561491
30
0
11
188.80364943637079
21
98.814869710543505
31
0
0
LINE
5
161
100
AcDbEntity
8
0
100
AcDbLine
10
188.80364943637079
20
98.814869710543505
30
0
11
189.96136606711684
21
92.248935320134223
31
0
0
LINE
5
162
100
AcDbEntity
8
0
100
AcDbLine
10
209.65639696616736
20
95.722190338006641
30
0
11
208.49828034994775
21
102.28764486561491
31
0
0
LINE
5
163
100
AcDbEntity
8
0
100
AcDbLine
10
228.41871991220853
20
99.02968251617952
30
0
11
209.65639696616736
21
95.722190338006641
31
0
0
LINE
5
164
100
AcDbEntity
8
0
100
AcDbLine
10
229.24526050006946
20
94.340102107555538
30
0
11
228.41871991220853
21
99.02968251617952
31
0
0
LINE
5
165
100
AcDbEntity
8
0
100
AcDbLine
10
248.00529781064483
20
97.64756730598998
30
0
11
229.24526050006946
21
94.340102107555538
31
0
0
LINE
5
166
100
AcDbEntity
8
0
100
AcDbLine
10
248.65042808963611
20
93.990246296312264
30
0
11
248.00529781064483
21
97.64756730598998
31
0
0
LINE
5
167
100
AcDbEntity
8
0
100
AcDbLine
10
267.410509287119
20
97.297583161373666
30
0
11
248.65042808963611
21
93.990246296312264
31
0
0
LINE
5
168
100
AcDbEntity
8
0
100
AcDbLine
10
270.88331671783715
20
77.601722244244769
30
0
11
267.410509287119
21
97.297583161373666
31
0
0
LINE
5
169
100
AcDbEntity
8
0
100
AcDbLine
10
274.1923809383656
20
58.840658020594859
30
0
11
270.71950562268506
21
78.536903944034961
31
0
0
LINE
5
170
100
AcDbEntity
8
0
100
AcDbLine
10
270.71950562268506
20
78.536903944034961
30
0
11
270.71845651528974
21
78.536718982451902
31
0
0
LINE
5
171
100
AcDbEntity
8
0
100
AcDbLine
10
258.73851034446818
20
36.772498949394155
30
0
11
277.4994083328715
21
40.080524118742709
31
0
0
LINE
5
172
100
AcDbEntity
8
0
100
AcDbLine
10
277.4994083328715
20
40.080524118742709
30
0
11
274.02643965776952
21
59.775156599705696
31
0
0
LINE
5
173
100
AcDbEntity
8
0
100
AcDbLine
10
240.87946296309588
20
22.886863779103784
30
0
11
241.70670585515239
21
18.197090485543043
31
0
0
LINE
5
174
100
AcDbEntity
8
0
100
AcDbLine
10
241.70670585515239
20
18.197090485543043
30
0
11
261.40257218796785
21
21.669831579939292
31
0
0
LINE
5
175
100
AcDbEntity
8
0
100
AcDbLine
10
261.40257218796785
20
21.669831579939292
30
0
11
258.73851034446818
21
36.772498949394155
31
0
0
LINE
5
176
100
AcDbEntity
8
0
100
AcDbLine
10
220.96189306367407
20
26.144602621012247
30
0
11
222.11949437741657
21
19.579274627144024
31
0
0
LINE
5
177
100
AcDbEntity
8
0
100
AcDbLine
10
222.11949437741657
20
19.579274627144024
30
0
11
240.87946296309588
21
22.886863779103784
31
0
0
LINE
5
178
100
AcDbEntity
8
0
100
AcDbLine
10
203.13659953861023
20
23.002133549282789
30
0
11
220.96189306367407
21
26.144602621012247
31
0
0
LINE
5
179
100
AcDbEntity
8
0
100
AcDbLine
10
185.53352798160859
20
13.128520934305975
30
0
11
204.29437361048781
21
16.435921009673461
31
0
0
LINE
5
180
100
AcDbEntity
8
0
100
AcDbLine
10
204.29437361048781
20
16.435921009673461
30
0
11
203.13659953861023
21
23.002133549282789
31
0
0
LINE
5
181
100
AcDbEntity
8
0
100
AcDbLine
10
166.17373564920993
20
7.7500705227828295
30
0
11
166.99555044696086
21
3.0896537985497785
31
0
0
LINE
5
182
100
AcDbEntity
8
0
100
AcDbLine
10
166.99555044696086
20
3.0896537985497785
30
0
11
186.69141126461199
21
6.5623224914189553
31
0
0
LINE
5
183
100
AcDbEntity
8
0
100
AcDbLine
10
186.69141126461199
20
6.5623224914189553
30
0
11
185.53352798160859
21
13.128520934305975
31
0
0
LINE
5
184
100
AcDbEntity
8
0
100
AcDbLine
10
160.21431742637049
20
41.546403851135956
30
0
11
160.21348646459523
21
41.546257331365474
31
0
0
LINE
5
185
100
AcDbEntity
8
0
100
AcDbLine
10
156.90664297484014
20
60.305584928116438
30
0
11
160.37954568112508
21
40.609326519193374
31
0
0
LINE
5
186
100
AcDbEntity
8
0
100
AcDbLine
10
117.99163167072977
20
7.7467026471277078
30
0
11
136.75345065246648
21
4.4387600332751491
31
0
0
LINE
5
187
100
AcDbEntity
8
0
100
AcDbLine
10
136.75345065246648
20
4.4387600332751491
30
0
11
140.22641126447354
21
24.133518223435647
31
0
0
LINE
5
188
100
AcDbEntity
8
0
100
AcDbLine
10
140.22641126447354
20
24.133518223435647
30
0
11
121.46535928266999
21
27.441298390068575
31
0
0
LINE
5
189
100
AcDbEntity
8
0
100
AcDbLine
10
147.39075438002808
20
4.4386096736112339
30
0
11
166.17373564920993
21
7.7500705227828295
31
0
0
LINE
5
190
100
AcDbEntity
8
0
100
AcDbLine
10
163.61445991804035
20
27.607563155736941
30
0
11
143.91642000920075
21
24.132942627035035
31
0
0
LINE
5
191
100
AcDbEntity
8
0
100
AcDbLine
10
143.91642000920075
20
24.132942627035035
30
0
11
147.39075438002808
21
4.4386096736112339
31
0
0
LINE
5
192
100
AcDbEntity
8
0
100
AcDbLine
10
13.424497459830443
20
78.410258991195349
30
0
11
13.423613909420656
21
78.410414828554678
31
0
0
LINE
5
193
100
AcDbEntity
8
0
100
AcDbLine
10
121.46535928266999
20
27.441298390068575
30
0
11
123.94630572844372
21
41.513193973036792
31
0
0
LINE
5
194
100
AcDbEntity
8
0
100
AcDbLine
10
156.90670145639135
20
60.305595239906609
30
0
11
156.90664297484014
21
60.305584928116438
31
0
0
LINE
5
195
100
AcDbEntity
8
0
100
AcDbLine
10
163.52265239964655
20
22.78442944812145
30
0
11
163.52258873552645
21
22.784418223435647
31
0
0
LINE
5
196
100
AcDbEntity
8
0
100
AcDbLine
10
160.21348646459523
20
41.546257331365474
30
0
11
162.7003979968799
21
27.446327909465378
31
0
0
LINE
5
197
100
AcDbEntity
8
0
100
AcDbLine
10
274.19126465097457
20
58.840461251566467
30
0
11
274.1923809383656
21
58.840658020594859
31
0
0
CIRCLE
5
198
100
AcDbEntity
8
0
100
AcDbCircle
10
181.33672616200101
20
108.5309952993763
30
0
40
0.50000000000001166
210
0
220
0
230
1
0
CIRCLE
5
199
100
AcDbEntity
8
0
100
AcDbCircle
10
191.83672616200099
20
108.5309952993763
30
0
40
0.50000000000000355
210
0
220
0
230
1
0
CIRCLE
5
200
100
AcDbEntity
8
0
100
AcDbCircle
10
202.33672616200096
20
108.5309952993763
30
0
40
0.50000000000000711
210
0
220
0
230
1
0
LINE
5
201
100
AcDbEntity
8
0
100
AcDbLine
10
91.969563934634209
20
108.17744190878302
30
0
11
92.676670715820748
21
108.88454868996959
31
0
0
LINE
5
202
100
AcDbEntity
8
0
100
AcDbLine
10
103.17667071582076
20
108.17744190878301
30
0
11
102.46956393463418
21
108.88454868996959
31
0
0
CIRCLE
5
203
100
AcDbEntity
8
0
100
AcDbCircle
10
92.323117325227486
20
108.5309952993763
30
0
40
0.50000000000000355
210
0
220
0
230
1
0
CIRCLE
5
204
100
AcDbEntity
8
0
100
AcDbCircle
10
102.82311732522746
20
108.5309952993763
30
0
40
0.50000000000001166
210
0
220
0
230
1
0
LINE
5
205
100
AcDbEntity
8
0
100
AcDbLine
10
102.46956393463418
20
108.17744190878301
30
0
11
103.17667071582076
21
108.88454868996959
31
0
0
CIRCLE
5
206
100
AcDbEntity
8
0
100
AcDbCircle
10
81.823117325227514
20
108.5309952993763
30
0
40
0.50000000000000711
210
0
220
0
230
1
0
ENDSEC
0
SECTION
2
OBJECTS
0
DICTIONARY
5
C
100
AcDbDictionary
3
ACAD_GROUP
350
D
3
ACAD_MLINESTYLE
350
17
0
DICTIONARY
5
D
100
AcDbDictionary
0
DICTIONARY
5
1A
330
C
100
AcDbDictionary
0
DICTIONARY
5
17
100
AcDbDictionary
0
ENDSEC
0
EOF
